PathFileType	4	(X/Y/Z)	OpenSim_Sub01_EMGBaseline_Magnet.trc
DataRate	CameraRate	NumFrames	NumMarkers	Units	OrigDataRate	OrigDataStartFrame	OrigNumFrames
100	100	20	8	m	100	951	7604
Frame#	Time	torso_imu_offset_imu	pelvis_imu_offset_imu	tibia_r_imu_offset_imu	femur_r_imu_offset_imu	tibia_l_imu_offset_imu	femur_l_imu_offset_imu	toes_r_imu_offset_imu	toes_l_imu_offset_imu
				X1	Y1	Z1	X2	Y2	Z2	X3	Y3	Z3	X4	Y4	Z4	X5	Y5	Z5	X6	Y6	Z6	X7	Y7	Z7	X8		Y8	Z8	

951	9.50000000	-0.92809310	-0.03888319	0.12613053	-0.69325329	0.06722056	-0.62501809	-0.59140869	-0.53531741	0.01526279	-0.71758296	-0.39924908	0.12020563	-0.06709851	0.81697851	0.00193805	-0.50000447	-0.05467460	0.22113286	-0.69958114	-0.11459403	-0.36573369	-0.72781553	-0.00921141	0.32630371
952	9.51000000	-0.93005301	-0.03709568	0.12879605	-0.69557593	0.06485586	-0.62394040	-0.58660482	-0.53967364	0.01893437	-0.71505378	-0.40363728	0.11993364	-0.07867798	0.81525762	-0.00658333	-0.50423565	-0.06190336	0.21344880	-0.70085871	-0.11672387	-0.36575010	-0.73497943	-0.00235415	0.30550551
953	9.52000000	-0.93177172	-0.03579013	0.13243823	-0.69887205	0.06275007	-0.62379967	-0.58438932	-0.54356544	0.02341868	-0.71205660	-0.40967699	0.12051990	-0.09332311	0.81381927	-0.01153298	-0.50707152	-0.07059957	0.20782729	-0.70108584	-0.12033468	-0.36460849	-0.74278135	0.00281761	0.28315486
954	9.53000000	-0.93244596	-0.03508297	0.13564062	-0.70319242	0.05986084	-0.62415132	-0.58484500	-0.54675886	0.02800551	-0.70803290	-0.41852278	0.12327003	-0.10911857	0.81206016	-0.01269017	-0.50912750	-0.08242772	0.20497516	-0.69912026	-0.12593360	-0.36308001	-0.75175952	0.00469909	0.26061964
955	9.54000000	-0.93206161	-0.03437926	0.13800650	-0.70739612	0.05613682	-0.62399081	-0.58602620	-0.54999819	0.03146030	-0.70335160	-0.42815334	0.12688485	-0.12646988	0.80910104	-0.01249498	-0.51131899	-0.09516420	0.20298975	-0.69691580	-0.13194867	-0.36121285	-0.76094819	0.00370873	0.23705036
956	9.55000000	-0.93076863	-0.03300631	0.13936102	-0.71018184	0.05173902	-0.62228712	-0.58571889	-0.55409266	0.03255518	-0.69851416	-0.43612353	0.12962640	-0.14616190	0.80410296	-0.01366185	-0.51455184	-0.10602919	0.19963544	-0.69683188	-0.13654324	-0.35896110	-0.76916836	0.00063943	0.21120989
957	9.56000000	-0.92898830	-0.03109679	0.14002797	-0.71114590	0.04726511	-0.61916188	-0.58330475	-0.55811756	0.03161229	-0.69343947	-0.44243219	0.13039719	-0.16823506	0.79759363	-0.01564994	-0.51875909	-0.11467702	0.19491363	-0.69873199	-0.13967155	-0.35687125	-0.77620994	-0.00371048	0.18219472
958	9.57000000	-0.92735079	-0.02940307	0.14071482	-0.71057572	0.04364841	-0.61562418	-0.57939395	-0.55981450	0.03014667	-0.68759829	-0.44895901	0.12859348	-0.19215691	0.79115219	-0.01541342	-0.52312487	-0.12263549	0.19054762	-0.70055891	-0.14266604	-0.35594547	-0.78260854	-0.00853851	0.14935874
959	9.58000000	-0.92648548	-0.02841907	0.14180610	-0.70890613	0.04127802	-0.61286736	-0.57476376	-0.55835207	0.02922206	-0.68094964	-0.45692646	0.12450661	-0.21759365	0.78558087	-0.01116197	-0.52675556	-0.13107266	0.18803867	-0.70108610	-0.14629097	-0.35682083	-0.78860108	-0.01315100	0.11286232
960	9.59000000	-0.92700341	-0.02782335	0.14269762	-0.70695717	0.03890014	-0.61256445	-0.57059402	-0.55724090	0.02847019	-0.67493759	-0.46546043	0.12104999	-0.24484551	0.77929307	-0.00502727	-0.52858374	-0.13994456	0.18809675	-0.70170226	-0.14951707	-0.35901473	-0.79347993	-0.01717779	0.07524264
961	9.60000000	-0.92940359	-0.02716388	0.14268106	-0.70559042	0.03511927	-0.61624105	-0.56805548	-0.56049883	0.02729602	-0.67113264	-0.47334882	0.12134192	-0.27427113	0.77035849	0.00029649	-0.52765009	-0.14894760	0.19114740	-0.70413315	-0.15110152	-0.36177667	-0.79641386	-0.02036633	0.03924700
962	9.61000000	-0.93255959	-0.02629090	0.14222591	-0.70522350	0.03096442	-0.62189005	-0.56706943	-0.56772068	0.02567349	-0.66888851	-0.48012292	0.12431305	-0.30534870	0.75831309	0.00454820	-0.52509398	-0.15724670	0.19554980	-0.70791369	-0.15156807	-0.36344550	-0.79733567	-0.02332823	0.00419247
963	9.62000000	-0.93409460	-0.02528731	0.14270787	-0.70593191	0.02932974	-0.62478651	-0.56659533	-0.57509723	0.02401451	-0.66585324	-0.48588629	0.12567175	-0.33687890	0.74382155	0.00933926	-0.52366941	-0.16359808	0.19807333	-0.71089277	-0.15279976	-0.36166020	-0.79676589	-0.02734003	-0.03324340
964	9.63000000	-0.93272012	-0.02426880	0.14494034	-0.70742823	0.03147029	-0.62235451	-0.56566008	-0.57980697	0.02272530	-0.66067785	-0.49086404	0.12282945	-0.36794484	0.72759086	0.01566428	-0.52500200	-0.16728200	0.19668059	-0.71162462	-0.15591001	-0.35560283	-0.79480125	-0.03326627	-0.07489312
965	9.64000000	-0.93047723	-0.02343069	0.14799654	-0.70837255	0.03362828	-0.61861140	-0.56356445	-0.58222349	0.02216167	-0.65512404	-0.49559861	0.11850446	-0.39852073	0.71036747	0.02254189	-0.52724107	-0.16916719	0.19300116	-0.71088813	-0.15962133	-0.34909401	-0.79023409	-0.04069652	-0.11796032
966	9.65000000	-0.92986397	-0.02297240	0.15067744	-0.70736584	0.03145474	-0.61845909	-0.55975078	-0.58333520	0.02262626	-0.65136641	-0.50066980	0.11623549	-0.42874068	0.69280861	0.02868321	-0.52805578	-0.17037010	0.18929141	-0.70985976	-0.16228255	-0.34648761	-0.78176599	-0.04895982	-0.15892648
967	9.66000000	-0.93100568	-0.02293465	0.15252412	-0.70503544	0.02562306	-0.62179458	-0.55502243	-0.58449125	0.02376543	-0.64915265	-0.50633824	0.11715544	-0.45866617	0.67412707	0.03366413	-0.52754731	-0.17131962	0.18704215	-0.70951057	-0.16326446	-0.34728403	-0.77034807	-0.05701432	-0.19627318
968	9.67000000	-0.93220159	-0.02323602	0.15364745	-0.70356796	0.02067176	-0.62466322	-0.55122980	-0.58731791	0.02472048	-0.64636266	-0.51261875	0.12054500	-0.48830256	0.65242453	0.03772629	-0.52768837	-0.17191531	0.18715439	-0.71065301	-0.16272477	-0.34724848	-0.75866252	-0.06353320	-0.23002178
969	9.68000000	-0.93230328	-0.02383902	0.15431055	-0.70424825	0.01977804	-0.62445020	-0.54937438	-0.59267251	0.02478152	-0.64144460	-0.51937735	0.12527311	-0.51736972	0.62680605	0.04120222	-0.52960367	-0.17191214	0.18995649	-0.71345616	-0.16106665	-0.34350433	-0.74848207	-0.06788886	-0.26039315
970	9.69000000	-0.93194305	-0.02484620	0.15518536	-0.70556265	0.02177866	-0.62281631	-0.54785506	-0.59910632	0.02371959	-0.63467788	-0.52605677	0.12912684	-0.54474344	0.59944317	0.04464353	-0.53175511	-0.17067591	0.19412030	-0.71618951	-0.15936256	-0.33749589	-0.73874495	-0.07155319	-0.28808319
